<?xml version="1.0" encoding="UTF-8"?>
<svg id="Layer_1" xmlns="http://www.w3.org/2000/svg" viewBox="0 0 2000 323.93">
  <defs>
    <style>
      .cls-1 {
        fill: #012340;
      }
    </style>
  </defs>
  <path class="cls-1" d="M9,159.35c6-14.29,14.42-26.83,25.46-37.69,11.31-11.13,24.6-19.46,39.26-25.48,16.16-6.63,33.36-9.43,50.78-9.43s34.66,2.81,50.87,9.44c7.79,3.18,15.23,7.02,22.18,11.58,6.14,4.03,11.9,8.64,17.21,13.88,11.01,10.86,19.54,23.45,25.56,37.72,6.19,14.66,9.08,30.15,9.08,46.05v110.84h-51.85v-13.15c-6.99,4.56-14.45,8.37-22.28,11.52-16.35,6.57-33.68,9.3-51.25,9.3s-34.27-2.85-50.29-9.43c-14.64-6.01-27.87-14.31-39.19-25.4-10.98-10.76-19.39-23.38-25.38-37.54-6.2-14.68-9.15-30.18-9.15-46.12s2.84-31.41,9-46.07ZM192.81,236.95c2.31-5.82,3.85-11.85,4.74-18,.65-4.49.95-9.05.95-13.62s-.31-8.97-.95-13.39c-.9-6.09-2.45-12.06-4.75-17.84-3.64-9.14-8.8-17.44-15.64-24.53-6.72-6.96-14.65-12.33-23.57-16.07-9.17-3.84-18.93-5.61-28.85-5.61s-19.52,1.8-28.67,5.61c-8.93,3.72-16.75,9.12-23.49,16.05-6.89,7.09-12.09,15.38-15.75,24.55-3.97,9.96-5.63,20.54-5.63,31.23s1.63,21.44,5.63,31.47c3.66,9.21,8.9,17.6,15.83,24.71,6.76,6.95,14.69,12.4,23.64,16.13,9.15,3.81,18.76,5.6,28.67,5.6s19.69-1.77,28.85-5.61c8.91-3.73,16.76-9.13,23.44-16.09,6.81-7.11,11.92-15.46,15.54-24.6Z"/>
  <path class="cls-1" d="M340.59,29.1c0,16.07-13.03,29.1-29.1,29.1s-29.1-13.02-29.1-29.1S295.41,0,311.49,0s29.1,13.02,29.1,29.1ZM337.41,316.25h-51.85V94.74h51.85v221.51Z"/>
  <path class="cls-1" d="M471.76,281.87c12.39-.39,25.6-3.83,35.78-11.31,6.61-4.85,12.79-12.19,12.79-21.17,0-2.79-.59-4.99-2.29-7.15-7.76-9.84-35.62-16.91-49.04-20.72-25.8-7.33-55.66-14.44-74.35-32.93-9.39-9.29-15.39-21.19-15.39-36.78,0-29.88,26.24-50.65,53.19-59.32,14.63-4.71,26.69-5.74,41.56-5.74,20.57,0,42.03,5.39,59.12,17.24,16.02,11.11,27.68,27.86,27.68,47.83h-46.5c0-6.13-4.82-11.2-9.55-14.48-16.47-11.41-45.03-11.41-61.49,0-4.73,3.28-9.55,8.35-9.55,14.48,0,3.46.83,6.2,3.12,8.84,8.82,10.14,37.36,17.11,50.34,20.59,35.09,9.41,87.56,22.21,87.56,68.15,0,22.79-13.41,41.86-31.68,54.52-38.5,26.69-99.07,26.69-137.56,0-18.27-12.66-31.68-31.73-31.68-54.52h46.5c0,8.98,6.55,16.32,13.55,21.17,10.78,7.48,24.77,10.92,37.9,11.31Z"/>
  <path class="cls-1" d="M705.89,281.87c12.39-.39,25.6-3.83,35.78-11.31,6.61-4.85,12.79-12.19,12.79-21.17,0-2.79-.59-4.99-2.29-7.15-7.76-9.84-35.62-16.91-49.04-20.72-25.8-7.33-55.66-14.44-74.35-32.93-9.39-9.29-15.39-21.19-15.39-36.78,0-29.88,26.24-50.65,53.19-59.32,14.63-4.71,26.69-5.74,41.56-5.74,20.57,0,42.03,5.39,59.12,17.24,16.02,11.11,27.68,27.86,27.68,47.83h-46.5c0-6.13-4.82-11.2-9.55-14.48-16.47-11.41-45.03-11.41-61.49,0-4.73,3.28-9.55,8.35-9.55,14.48,0,3.46.83,6.2,3.12,8.84,8.82,10.14,37.36,17.11,50.34,20.59,35.09,9.41,87.56,22.21,87.56,68.15,0,22.79-13.41,41.86-31.68,54.52-38.5,26.69-99.07,26.69-137.56,0-18.27-12.66-31.68-31.73-31.68-54.52h46.5c0,8.98,6.55,16.32,13.55,21.17,10.78,7.48,24.77,10.92,37.9,11.31Z"/>
  <path class="cls-1" d="M915.8,96.18c16.16-6.63,33.36-9.43,50.78-9.43s34.66,2.81,50.87,9.44c14.68,6,28.07,14.29,39.38,25.46,11.01,10.86,19.54,23.45,25.57,37.72,3.53,8.35,5.98,16.98,7.44,25.79,1.1,6.66,1.63,13.41,1.63,20.25s-.52,13.5-1.59,20.09h-194.45c.87,3.84,2.01,7.62,3.48,11.3,3.66,9.21,8.9,17.6,15.83,24.71,6.76,6.95,14.69,12.4,23.64,16.13,9.15,3.81,18.76,5.6,28.67,5.6s19.69-1.77,28.85-5.61c5.75-2.41,11.05-5.5,15.88-9.27,2.49-1.93,4.85-4.04,7.08-6.33h58.48c-5.44,10.02-12.28,19.1-20.51,27.22-4.18,4.13-8.64,7.86-13.36,11.22-8.06,5.74-16.84,10.41-26.13,14.14-16.35,6.57-33.68,9.3-51.25,9.3s-34.27-2.85-50.29-9.43c-14.64-6.01-27.87-14.31-39.19-25.4-10.98-10.76-19.39-23.38-25.38-37.54-3.57-8.44-6.05-17.14-7.52-26.03-1.1-6.59-1.63-13.31-1.63-20.09s.53-13.6,1.62-20.25c1.44-8.82,3.88-17.46,7.39-25.81,6-14.29,14.42-26.83,25.46-37.69,11.32-11.13,24.6-19.46,39.26-25.48ZM895.47,185.16h142.86c-.87-3.75-2.01-7.44-3.46-11.06-3.64-9.14-8.8-17.44-15.64-24.53-6.72-6.96-14.65-12.33-23.58-16.07-9.16-3.84-18.92-5.61-28.85-5.61s-19.52,1.8-28.68,5.61c-8.93,3.72-16.75,9.12-23.48,16.05-6.9,7.09-12.09,15.38-15.75,24.55-1.44,3.61-2.57,7.31-3.44,11.06Z"/>
  <path class="cls-1" d="M1239.29,86.75c63.14,0,114.84,51.69,114.84,114.83v114.67h-51.84v-118.18c0-34.64-28.35-62.99-62.99-62.99h-.08c-34.61.04-62.91,28.37-62.91,62.99v118.18h-51.85v-114.67c0-63.14,51.69-114.83,114.83-114.83Z"/>
  <path class="cls-1" d="M1438.89,135.08v103.81c0,20.38,16.64,37.02,37.02,37.02h14.18v40.34h-25.18c-4.77,0-9.53-.43-14.21-1.31-36.66-6.84-63.65-39.19-63.65-76.56V19.17h51.85v75.57h51.2v40.34h-51.2Z"/>
  <path class="cls-1" d="M1581.35,29.1c0,16.07-13.03,29.1-29.1,29.1s-29.1-13.02-29.1-29.1S1536.18,0,1552.25,0s29.1,13.02,29.1,29.1ZM1578.17,316.25h-51.85V94.74h51.85v221.51Z"/>
  <path class="cls-1" d="M1623.57,159.35c6-14.29,14.42-26.83,25.46-37.69,11.31-11.13,24.6-19.46,39.26-25.48,16.16-6.63,33.36-9.43,50.78-9.43s34.66,2.81,50.87,9.44c7.79,3.18,15.23,7.02,22.18,11.58,6.14,4.03,11.9,8.64,17.21,13.88,11.01,10.86,19.54,23.45,25.56,37.72,6.19,14.66,9.08,30.15,9.08,46.05v110.84h-51.85v-13.15c-6.99,4.56-14.45,8.37-22.28,11.52-16.35,6.57-33.68,9.3-51.25,9.3s-34.27-2.85-50.29-9.43c-14.64-6.01-27.87-14.31-39.19-25.4-10.98-10.76-19.39-23.38-25.38-37.54-6.2-14.68-9.15-30.18-9.15-46.12s2.84-31.41,9-46.07ZM1807.38,236.95c2.31-5.82,3.85-11.85,4.74-18,.65-4.49.95-9.05.95-13.62s-.31-8.97-.95-13.39c-.9-6.09-2.45-12.06-4.75-17.84-3.64-9.14-8.8-17.44-15.64-24.53-6.72-6.96-14.65-12.33-23.57-16.07-9.17-3.84-18.93-5.61-28.85-5.61s-19.52,1.8-28.67,5.61c-8.93,3.72-16.75,9.12-23.49,16.05-6.89,7.09-12.09,15.38-15.75,24.55-3.97,9.96-5.63,20.54-5.63,31.23s1.63,21.44,5.63,31.47c3.66,9.21,8.9,17.6,15.83,24.71,6.76,6.95,14.69,12.4,23.64,16.13,9.15,3.81,18.76,5.6,28.67,5.6s19.69-1.77,28.85-5.61c8.91-3.73,16.76-9.13,23.44-16.09,6.81-7.11,11.92-15.46,15.54-24.6Z"/>
  <path class="cls-1" d="M1948.8,19.17v219.72c0,20.38,16.64,37.02,37.02,37.02h14.18v40.34h-25.18c-4.77,0-9.53-.43-14.21-1.31-36.66-6.84-63.65-39.19-63.65-76.56V19.17h51.85Z"/>
</svg>