<?xml version="1.0" encoding="UTF-8"?>
<svg id="Layer_1" xmlns="http://www.w3.org/2000/svg" viewBox="0 0 2000 2000">
  <defs>
    <style>
      .cls-1 {
        fill: #012340;
      }

      .cls-2 {
        fill: #0572ff;
      }
    </style>
  </defs>
  <path class="cls-1" d="M2000,1004.95v903.91h-350.66v-148.59c-174.35,149.58-401.69,239.72-649.34,239.72C447.75,2000,0,1552.25,0,1000S447.75,0,1000,0h5.45v350.17h-5.45c-358.59,0-649.33,291.23-649.33,649.83s290.73,649.33,649.33,649.33,646.86-287.77,649.34-644.38h350.66Z"/>
  <path class="cls-2" d="M1649.83,700.35h350.17s0-350.17,0-350.17C2000,156.78,1843.22,0,1649.83,0h0c-193.39,0-350.17,156.78-350.17,350.17h0c0,193.4,156.78,350.17,350.17,350.17Z"/>
</svg>